<svg width="30" height="23" viewBox="0 0 30 23" fill="none" xmlns="http://www.w3.org/2000/svg">
<path d="M28.7913 13.6326C28.4642 13.3806 28.0894 13.1978 27.6894 13.0953C27.2895 12.9928 26.8729 12.9727 26.465 13.0364C28.8125 10.6664 30 8.31012 30 6.00012C30 2.69137 27.3387 0.000117286 24.0675 0.000117286C23.1995 -0.00533356 22.3408 0.179273 21.5518 0.540977C20.7627 0.902681 20.0624 1.43271 19.5 2.09387C18.9376 1.43271 18.2373 0.902681 17.4482 0.540977C16.6592 0.179273 15.8005 -0.00533356 14.9325 0.000117286C11.6613 0.000117286 9 2.69137 9 6.00012C9 7.37512 9.405 8.71137 10.2575 10.1251C9.5593 10.302 8.92211 10.6649 8.41375 11.1751L5.58625 14.0001H2C1.46957 14.0001 0.960859 14.2108 0.585786 14.5859C0.210714 14.961 0 15.4697 0 16.0001L0 21.0001C0 21.5306 0.210714 22.0393 0.585786 22.4143C0.960859 22.7894 1.46957 23.0001 2 23.0001H15C15.0818 23.0001 15.1632 22.99 15.2425 22.9701L23.2425 20.9701C23.2935 20.9579 23.3433 20.9412 23.3913 20.9201L28.25 18.8526L28.305 18.8276C28.772 18.5943 29.1718 18.2459 29.4669 17.8153C29.7621 17.3847 29.9427 16.8861 29.9918 16.3664C30.041 15.8467 29.957 15.3231 29.7478 14.8448C29.5387 14.3665 29.2112 13.9493 28.7962 13.6326H28.7913ZM14.9325 2.00012C15.707 1.98878 16.4673 2.20871 17.1162 2.63178C17.765 3.05485 18.273 3.66184 18.575 4.37512C18.6503 4.55853 18.7785 4.7154 18.9432 4.8258C19.1079 4.9362 19.3017 4.99515 19.5 4.99515C19.6983 4.99515 19.8921 4.9362 20.0568 4.8258C20.2215 4.7154 20.3497 4.55853 20.425 4.37512C20.727 3.66184 21.235 3.05485 21.8838 2.63178C22.5327 2.20871 23.293 1.98878 24.0675 2.00012C26.1987 2.00012 28 3.83137 28 6.00012C28 8.43887 26.0262 11.1976 22.2925 13.9876L20.9062 14.3064C21.0279 13.7924 21.0317 13.2575 20.9172 12.7418C20.8028 12.2261 20.5731 11.7431 20.2454 11.3288C19.9177 10.9145 19.5005 10.5798 19.0251 10.3497C18.5496 10.1196 18.0282 10.0001 17.5 10.0001H12.585C11.5063 8.54512 11 7.26512 11 6.00012C11 3.83137 12.8013 2.00012 14.9325 2.00012ZM2 16.0001H5V21.0001H2V16.0001ZM27.4287 17.0264L22.6787 19.0489L14.875 21.0001H7V15.4139L9.82875 12.5864C10.0138 12.3998 10.2341 12.252 10.4768 12.1513C10.7195 12.0507 10.9798 11.9993 11.2425 12.0001H17.5C17.8978 12.0001 18.2794 12.1582 18.5607 12.4395C18.842 12.7208 19 13.1023 19 13.5001C19 13.8979 18.842 14.2795 18.5607 14.5608C18.2794 14.8421 17.8978 15.0001 17.5 15.0001H14C13.7348 15.0001 13.4804 15.1055 13.2929 15.293C13.1054 15.4805 13 15.7349 13 16.0001C13 16.2653 13.1054 16.5197 13.2929 16.7072C13.4804 16.8948 13.7348 17.0001 14 17.0001H18C18.0753 16.9999 18.1503 16.9915 18.2237 16.9751L26.5987 15.0489L26.6375 15.0389C26.8932 14.9679 27.166 14.994 27.4036 15.1121C27.6412 15.2302 27.8267 15.432 27.9245 15.6787C28.0222 15.9254 28.0253 16.1995 27.9331 16.4483C27.8409 16.6971 27.6599 16.903 27.425 17.0264H27.4287Z" fill="#212121"/>
</svg>
