<svg width="32" height="32" viewBox="0 0 32 32" fill="none" xmlns="http://www.w3.org/2000/svg">
<path d="M26.3464 4.90625L10.0652 2.03125C9.54289 1.93934 9.00547 2.05863 8.57111 2.3629C8.13675 2.66716 7.84101 3.13148 7.74894 3.65375L4.03019 24.7788C3.98471 25.0375 3.99067 25.3028 4.04773 25.5593C4.10479 25.8158 4.21183 26.0585 4.36274 26.2736C4.51365 26.4887 4.70547 26.672 4.92723 26.8129C5.149 26.9538 5.39636 27.0497 5.65519 27.095L21.9364 29.97C22.1953 30.0157 22.4607 30.0098 22.7173 29.9529C22.974 29.8959 23.2168 29.7889 23.4321 29.638C23.6473 29.487 23.8307 29.2952 23.9717 29.0733C24.1127 28.8514 24.2086 28.604 24.2539 28.345L27.9727 7.22C28.0638 6.69753 27.9436 6.16027 27.6387 5.72637C27.3337 5.29248 26.8689 4.99748 26.3464 4.90625ZM22.2814 28L5.99894 25.125L9.71769 4L25.9989 6.875L22.2814 28ZM11.1664 7.3025C11.2128 7.04147 11.3608 6.80951 11.5781 6.65762C11.7954 6.50573 12.0641 6.44634 12.3252 6.4925L22.7002 8.32375C22.9468 8.36694 23.1682 8.50105 23.3207 8.69956C23.4732 8.89808 23.5457 9.14657 23.5238 9.39595C23.502 9.64532 23.3874 9.87744 23.2028 10.0464C23.0181 10.2155 22.7768 10.3091 22.5264 10.3088C22.4678 10.3086 22.4093 10.3036 22.3514 10.2938L11.9764 8.46125C11.7154 8.41493 11.4834 8.26685 11.3316 8.04956C11.1797 7.83227 11.1203 7.56356 11.1664 7.3025ZM10.4739 11.2425C10.4967 11.1131 10.5448 10.9895 10.6154 10.8787C10.6859 10.768 10.7776 10.6722 10.8853 10.5968C10.9929 10.5215 11.1143 10.4681 11.2425 10.4397C11.3707 10.4113 11.5033 10.4084 11.6327 10.4313L22.0077 12.2638C22.256 12.3053 22.4795 12.4389 22.6336 12.638C22.7877 12.8371 22.861 13.087 22.8389 13.3378C22.8168 13.5886 22.7009 13.8218 22.5144 13.9909C22.3279 14.16 22.0844 14.2525 21.8327 14.25C21.7736 14.2501 21.7146 14.2446 21.6564 14.2338L11.2814 12.4025C11.0206 12.3556 10.7891 12.2071 10.6376 11.9896C10.4862 11.7721 10.4274 11.5034 10.4739 11.2425ZM9.78019 15.1813C9.82738 14.9209 9.97583 14.6899 10.193 14.5388C10.4102 14.3876 10.6784 14.3288 10.9389 14.375L16.1239 15.2863C16.3704 15.3294 16.5917 15.4634 16.7442 15.6618C16.8967 15.8602 16.9693 16.1085 16.9476 16.3578C16.926 16.6071 16.8116 16.8392 16.6272 17.0083C16.4428 17.1774 16.2017 17.2712 15.9514 17.2713C15.8928 17.2712 15.8342 17.2662 15.7764 17.2563L10.5889 16.34C10.3281 16.2934 10.0965 16.1452 9.94485 15.9279C9.79322 15.7107 9.734 15.4421 9.78019 15.1813Z" fill="#212121"/>
</svg>
