<svg width="23" height="24" viewBox="0 0 23 24" fill="none" xmlns="http://www.w3.org/2000/svg">
<path d="M23 3.99799C22.9996 3.24994 22.7895 2.51698 22.3935 1.88236C21.9974 1.24774 21.4314 0.736891 20.7596 0.407822C20.0878 0.0787523 19.3372 -0.0553462 18.5931 0.0207552C17.8489 0.0968567 17.141 0.380108 16.5497 0.838342C15.9585 1.29658 15.5075 1.91143 15.2482 2.61307C14.9888 3.31471 14.9314 4.07503 15.0824 4.80767C15.2334 5.54031 15.5869 6.21592 16.1026 6.75776C16.6184 7.29961 17.2757 7.68597 18 7.87299V9.99798C18 10.2632 17.8947 10.5176 17.7071 10.7051C17.5196 10.8926 17.2652 10.998 17 10.998H6.00001C5.65926 10.9978 5.321 11.0561 5.00001 11.1705V7.87299C5.94267 7.62959 6.7642 7.05076 7.31061 6.24498C7.85702 5.4392 8.0908 4.4618 7.96813 3.49599C7.84545 2.53017 7.37475 1.64225 6.64424 0.998663C5.91374 0.355075 4.97358 1.84778e-06 4.00001 1.84778e-06C3.02644 1.84778e-06 2.08628 0.355075 1.35578 0.998663C0.625271 1.64225 0.154565 2.53017 0.031891 3.49599C-0.0907835 4.4618 0.142996 5.4392 0.689408 6.24498C1.23582 7.05076 2.05735 7.62959 3.00001 7.87299V16.123C2.05735 16.3664 1.23582 16.9452 0.689408 17.751C0.142996 18.5568 -0.0907835 19.5342 0.031891 20.5C0.154565 21.4658 0.625271 22.3537 1.35578 22.9973C2.08628 23.6409 3.02644 23.996 4.00001 23.996C4.97358 23.996 5.91374 23.6409 6.64424 22.9973C7.37475 22.3537 7.84545 21.4658 7.96813 20.5C8.0908 19.5342 7.85702 18.5568 7.31061 17.751C6.7642 16.9452 5.94267 16.3664 5.00001 16.123V13.998C5.00001 13.7328 5.10537 13.4784 5.2929 13.2909C5.48044 13.1033 5.73479 12.998 6.00001 12.998H17C17.7957 12.998 18.5587 12.6819 19.1213 12.1193C19.6839 11.5567 20 10.7936 20 9.99798V7.87299C20.8583 7.65004 21.6185 7.1487 22.1613 6.44748C22.7042 5.74627 22.9992 4.88479 23 3.99799ZM2.00001 3.99799C2.00001 3.60242 2.11731 3.21574 2.33707 2.88685C2.55683 2.55795 2.86919 2.3016 3.23464 2.15023C3.6001 1.99885 4.00223 1.95924 4.39019 2.03641C4.77815 2.11358 5.13452 2.30407 5.41422 2.58377C5.69393 2.86348 5.88441 3.21984 5.96158 3.6078C6.03875 3.99577 5.99914 4.3979 5.84777 4.76335C5.69639 5.1288 5.44005 5.44116 5.11115 5.66092C4.78225 5.88069 4.39557 5.99799 4.00001 5.99799C3.46958 5.99799 2.96087 5.78727 2.5858 5.4122C2.21072 5.03713 2.00001 4.52842 2.00001 3.99799ZM6.00001 19.998C6.00001 20.3935 5.88271 20.7802 5.66295 21.1091C5.44319 21.438 5.13083 21.6944 4.76538 21.8457C4.39992 21.9971 3.99779 22.0367 3.60983 21.9596C3.22187 21.8824 2.8655 21.6919 2.5858 21.4122C2.30609 21.1325 2.11561 20.7761 2.03844 20.3882C1.96127 20.0002 2.00087 19.5981 2.15225 19.2326C2.30363 18.8672 2.55997 18.5548 2.88887 18.335C3.21777 18.1153 3.60445 17.998 4.00001 17.998C4.53044 17.998 5.03915 18.2087 5.41422 18.5838C5.7893 18.9588 6.00001 19.4676 6.00001 19.998ZM19 5.99799C18.6044 5.99799 18.2178 5.88069 17.8889 5.66092C17.56 5.44116 17.3036 5.1288 17.1523 4.76335C17.0009 4.3979 16.9613 3.99577 17.0384 3.6078C17.1156 3.21984 17.3061 2.86348 17.5858 2.58377C17.8655 2.30407 18.2219 2.11358 18.6098 2.03641C18.9978 1.95924 19.3999 1.99885 19.7654 2.15023C20.1308 2.3016 20.4432 2.55795 20.6629 2.88685C20.8827 3.21574 21 3.60242 21 3.99799C21 4.52842 20.7893 5.03713 20.4142 5.4122C20.0392 5.78727 19.5304 5.99799 19 5.99799Z" fill="#212121"/>
</svg>
