<svg width="32" height="22" viewBox="0 0 32 22" fill="none" xmlns="http://www.w3.org/2000/svg">
<path d="M31 20H30C29.7348 20 29.4804 19.8946 29.2929 19.7071C29.1054 19.5196 29 19.2652 29 19V15C29 14.7348 29.1054 14.4804 29.2929 14.2929C29.4804 14.1054 29.7348 14 30 14H31C31.2652 14 31.5196 13.8946 31.7071 13.7071C31.8946 13.5196 32 13.2652 32 13C32 12.7348 31.8946 12.4804 31.7071 12.2929C31.5196 12.1054 31.2652 12 31 12H30C29.2044 12 28.4413 12.3161 27.8787 12.8787C27.3161 13.4413 27 14.2044 27 15V16H24.9C24.6912 14.9871 24.1741 14.0636 23.4197 13.3561C22.6653 12.6487 21.7105 12.192 20.6863 12.0487L16.18 1.23125C16.0282 0.866668 15.7719 0.555187 15.4433 0.336073C15.1147 0.116959 14.7287 2.05545e-05 14.3338 0H3C2.46957 0 1.96086 0.210714 1.58579 0.585786C1.21072 0.960859 1 1.46957 1 2V14C0.442867 14.7428 0.103596 15.6262 0.0202058 16.551C-0.0631841 17.4758 0.112602 18.4055 0.527866 19.2361C0.943131 20.0666 1.58147 20.7651 2.37135 21.2533C3.16123 21.7414 4.07144 22 5 22H20C21.1522 21.9986 22.2687 21.6 23.1613 20.8713C24.0539 20.1427 24.6679 19.1286 24.9 18H27V19C27 19.7956 27.3161 20.5587 27.8787 21.1213C28.4413 21.6839 29.2044 22 30 22H31C31.2652 22 31.5196 21.8946 31.7071 21.7071C31.8946 21.5196 32 21.2652 32 21C32 20.7348 31.8946 20.4804 31.7071 20.2929C31.5196 20.1054 31.2652 20 31 20ZM18.5 12H8V2H14.3338L18.5 12ZM6 2V12H5C4.31151 11.9993 3.6304 12.1419 3 12.4188V2H6ZM20 20H5C4.20435 20 3.44129 19.6839 2.87868 19.1213C2.31607 18.5587 2 17.7956 2 17C2 16.2044 2.31607 15.4413 2.87868 14.8787C3.44129 14.3161 4.20435 14 5 14H20C20.7957 14 21.5587 14.3161 22.1213 14.8787C22.6839 15.4413 23 16.2044 23 17C23 17.7956 22.6839 18.5587 22.1213 19.1213C21.5587 19.6839 20.7957 20 20 20ZM21 17C21 17.2652 20.8946 17.5196 20.7071 17.7071C20.5196 17.8946 20.2652 18 20 18H5C4.73479 18 4.48043 17.8946 4.2929 17.7071C4.10536 17.5196 4 17.2652 4 17C4 16.7348 4.10536 16.4804 4.2929 16.2929C4.48043 16.1054 4.73479 16 5 16H20C20.2652 16 20.5196 16.1054 20.7071 16.2929C20.8946 16.4804 21 16.7348 21 17Z" fill="#212121"/>
</svg>
