<svg width="167" height="25" viewBox="0 0 167 25" fill="none" xmlns="http://www.w3.org/2000/svg">
<path fill-rule="evenodd" clip-rule="evenodd" d="M14.0185 0C20.0121 0 24.3411 4.37842 24.3411 10.4279C24.3411 18.7501 18.3139 25 10.2891 25C4.2956 24.9999 7.29312e-05 20.6218 0 14.5724C0 6.25025 6.02703 8.55508e-05 14.0185 0ZM13.4193 5.41438C9.32365 5.41439 6.26036 9.25802 6.26032 14.4385C6.26032 17.5467 8.12486 19.5856 10.9219 19.5856C15.0175 19.5856 18.0812 15.7085 18.0812 10.5949C18.0811 7.48662 16.2163 5.41438 13.4193 5.41438Z" fill="#212121"/>
<path fill-rule="evenodd" clip-rule="evenodd" d="M66.9846 0C72.9783 0 77.3069 4.37842 77.3069 10.4279C77.3069 18.7501 71.2801 25 63.2552 25C57.2617 25 52.9662 20.6218 52.9661 14.5724C52.9661 6.2502 58.9931 2.20778e-05 66.9846 0ZM66.3854 5.41438C62.2898 5.41438 59.2262 9.25802 59.2261 14.4385C59.2261 17.5468 61.0909 19.5856 63.888 19.5856C67.9836 19.5856 71.0469 15.7085 71.0469 10.5949C71.0469 7.48666 69.1823 5.41444 66.3854 5.41438Z" fill="#212121"/>
<path d="M133.598 16.4104C132.832 20.6885 135.296 22.8277 138.559 22.8278C142.422 22.8278 144.819 20.5214 145.518 16.4104L148.315 0.501489H150.713L147.949 16.2768C146.95 21.9252 143.654 25 138.493 25C133.598 25 130.268 21.6913 131.233 16.2768L134.031 0.501489H136.428L133.598 16.4104Z" fill="#212121"/>
<path d="M159.341 0.167276C163.87 0.167276 167 3.24202 167 7.68723H164.636C164.636 4.44524 162.405 2.17255 159.242 2.17255C155.712 2.17257 153.548 3.94401 153.548 6.88519C153.548 9.22469 155.079 10.4615 157.643 11.1633L160.44 11.9654C163.97 12.968 165.668 14.873 165.668 17.8476C165.668 22.0588 162.338 24.833 157.344 24.8331C152.116 24.8331 148.852 21.9252 148.852 17.1791H151.217C151.317 20.6885 153.681 22.8278 157.444 22.8278C160.906 22.8278 163.237 20.9226 163.237 18.1151C163.237 15.8758 162.172 14.7394 159.308 13.9706L156.611 13.2019C152.982 12.1992 151.15 10.0936 151.15 7.05213C151.15 2.84091 154.347 0.167288 159.341 0.167276Z" fill="#212121"/>
<path d="M31.4418 18.9505H41.1981L40.2324 24.4989H24.416L28.645 0.501489H34.7383L31.4418 18.9505Z" fill="#212121"/>
<path d="M48.6633 24.4989H42.57L46.7986 0.501489H52.8923L48.6633 24.4989Z" fill="#212121"/>
<path d="M94.2306 20.8891L97.8269 0.501489H100.091L95.8623 24.4989H93.3317L83.6753 3.9106L80.0459 24.4989H77.7815L82.0105 0.501489H84.6742L94.2306 20.8891Z" fill="#212121"/>
<path d="M115.31 2.60706H104.221L102.756 11.063H112.912L112.546 13.1686H102.39L100.758 22.3933H112.079L111.794 24.0348L119.949 13.3587C120.245 14.0153 120.773 14.5437 121.428 14.8393L114.203 24.4989H97.9946L102.223 0.501489H115.709L115.31 2.60706Z" fill="#212121"/>
<path d="M129.354 24.4989H126.857L122.799 15.094C123.613 15.0492 124.338 14.6732 124.844 14.0985L129.354 24.4989Z" fill="#212121"/>
<path d="M125.283 10.8356C124.967 10.1922 124.426 9.68074 123.763 9.40488L130.519 0.501489H133.316L125.283 10.8356Z" fill="#212121"/>
<path d="M122.264 9.20394C121.443 9.30751 120.727 9.74961 120.26 10.3871L116.035 0.501489H118.532L122.264 9.20394Z" fill="#212121"/>
<path d="M123.85 12.1394C123.85 12.8124 123.306 13.358 122.636 13.358C121.965 13.358 121.422 12.8124 121.422 12.1394C121.422 11.4665 121.965 10.9209 122.636 10.9209C123.306 10.9209 123.85 11.4665 123.85 12.1394Z" fill="#212121"/>
</svg>
