<svg width="26" height="29" viewBox="0 0 26 29" fill="none" xmlns="http://www.w3.org/2000/svg">
<path d="M25 26.9993H19.8675L19.08 21.4843L19.485 21.723C19.7114 21.8564 19.9618 21.9438 20.2219 21.9804C20.4821 22.0169 20.7469 22.0018 21.0012 21.936C21.2555 21.8702 21.4944 21.7549 21.7042 21.5968C21.9139 21.4386 22.0905 21.2407 22.2237 21.0143L23.7237 18.4718C23.8571 18.2454 23.9445 17.995 23.9811 17.7349C24.0176 17.4747 24.0026 17.2099 23.9367 16.9556C23.8709 16.7012 23.7556 16.4624 23.5975 16.2526C23.4393 16.0428 23.2414 15.8663 23.015 15.733L18.64 13.1568L23.7262 4.51553C23.8596 4.28917 23.947 4.03877 23.9836 3.77861C24.0201 3.51846 24.0051 3.25366 23.9392 2.99933C23.8734 2.74499 23.7581 2.50612 23.6 2.29635C23.4418 2.08659 23.2439 1.91003 23.0175 1.77678L20.475 0.276777C20.2486 0.143434 19.9982 0.0559927 19.7381 0.0194468C19.4779 -0.0170991 19.2131 -0.00203327 18.9588 0.0637838C18.7045 0.129601 18.4656 0.24488 18.2558 0.403035C18.0461 0.56119 17.8695 0.759123 17.7362 0.985527L15.16 5.36053L6.515 0.276777C6.28865 0.143434 6.03824 0.0559927 5.77809 0.0194468C5.51793 -0.0170991 5.25313 -0.00203327 4.9988 0.0637838C4.74447 0.129601 4.5056 0.24488 4.29583 0.403035C4.08606 0.56119 3.90951 0.759123 3.77625 0.985527L2.27625 3.52678C2.14271 3.75318 2.05511 4.00369 2.01846 4.26397C1.98181 4.52426 1.99683 4.78922 2.06265 5.04369C2.12848 5.29817 2.24382 5.53717 2.40209 5.74704C2.56035 5.95691 2.75843 6.13352 2.985 6.26678L7.36 8.84303L2.27625 17.4843C2.14291 17.7106 2.05547 17.961 2.01892 18.2212C1.98237 18.4813 1.99744 18.7461 2.06326 19.0005C2.12907 19.2548 2.24435 19.4937 2.40251 19.7034C2.56066 19.9132 2.7586 20.0898 2.985 20.223L5.5275 21.723C5.92457 21.961 6.39346 22.0496 6.85 21.973L6.1325 26.9993H1C0.734784 26.9993 0.48043 27.1046 0.292893 27.2922C0.105357 27.4797 0 27.7341 0 27.9993C0 28.2645 0.105357 28.5188 0.292893 28.7064C0.48043 28.8939 0.734784 28.9993 1 28.9993H25C25.2652 28.9993 25.5196 28.8939 25.7071 28.7064C25.8946 28.5188 26 28.2645 26 27.9993C26 27.7341 25.8946 27.4797 25.7071 27.2922C25.5196 27.1046 25.2652 26.9993 25 26.9993ZM22 17.4568L20.5 19.9993L11.8588 14.913L13.3587 12.3693L22 17.4568ZM19.4575 1.99928L22 3.49928L16.9137 12.1418L14.375 10.6455L19.4575 1.99928ZM4 4.54303L5.5 1.99928L14.1425 7.08678L12.6425 9.63053L4 4.54303ZM6.5425 19.9993L4 18.4993L9.08625 9.85678L11.6313 11.3568L6.5425 19.9993ZM8.1525 26.9993L9.25 19.3493L10.8462 16.6368L16.875 20.1868L17.8487 26.9993H8.1525Z" fill="#212121"/>
</svg>
