<svg width="31" height="20" viewBox="0 0 31 20" fill="none" xmlns="http://www.w3.org/2000/svg">
<path d="M29 18.0054H28V2.24286L29.2088 1.98286C29.3399 1.95826 29.4649 1.90764 29.5762 1.83399C29.6875 1.76034 29.783 1.66515 29.8569 1.55403C29.9309 1.44291 29.9818 1.31811 30.0068 1.18699C30.0317 1.05587 30.0302 0.921073 30.0022 0.790556C29.9743 0.660039 29.9205 0.53644 29.844 0.427044C29.7675 0.317648 29.6699 0.224669 29.5569 0.153588C29.444 0.0825075 29.3179 0.0347641 29.1862 0.0131715C29.0545 -0.00842109 28.9198 -0.00342552 28.79 0.0278638L0.79 6.02786C0.54878 6.07992 0.335326 6.21932 0.190693 6.41927C0.0460606 6.61921 -0.0195345 6.86557 0.0065248 7.11097C0.0325841 7.35636 0.148457 7.58345 0.331857 7.74856C0.515256 7.91367 0.753228 8.00513 1 8.00536C1.07102 8.00539 1.14183 7.99784 1.21125 7.98286L2 7.81411V18.0054H1C0.734784 18.0054 0.48043 18.1107 0.292893 18.2983C0.105357 18.4858 0 18.7401 0 19.0054C0 19.2706 0.105357 19.5249 0.292893 19.7125C0.48043 19.9 0.734784 20.0054 1 20.0054H29C29.2652 20.0054 29.5196 19.9 29.7071 19.7125C29.8946 19.5249 30 19.2706 30 19.0054C30 18.7401 29.8946 18.4858 29.7071 18.2983C29.5196 18.1107 29.2652 18.0054 29 18.0054ZM4 7.38036L26 2.67161V18.0054H23V11.0054C23 10.7401 22.8946 10.4858 22.7071 10.2983C22.5196 10.1107 22.2652 10.0054 22 10.0054H8C7.73478 10.0054 7.48043 10.1107 7.29289 10.2983C7.10536 10.4858 7 10.7401 7 11.0054V18.0054H4V7.38036ZM21 14.0054H9V12.0054H21V14.0054ZM9 16.0054H21V18.0054H9V16.0054Z" fill="#212121"/>
</svg>
