<svg width="20" height="29" viewBox="0 0 20 29" fill="none" xmlns="http://www.w3.org/2000/svg">
<path d="M10.8957 9.55117C10.8128 9.38476 10.6851 9.24477 10.527 9.14692C10.3689 9.04907 10.1866 8.99723 10.0007 8.99723C9.81478 8.99723 9.63253 9.04907 9.47443 9.14692C9.31633 9.24477 9.18864 9.38476 9.10571 9.55117L0.105707 27.5512C-0.0129771 27.7884 -0.0325719 28.063 0.0512334 28.3147C0.135039 28.5663 0.315379 28.7744 0.552582 28.893C0.789785 29.0117 1.06442 29.0313 1.31607 28.9475C1.56772 28.8637 1.77577 28.6834 1.89446 28.4462L3.62571 24.9987H16.3882L18.112 28.4462C18.1946 28.6114 18.3214 28.7504 18.4783 28.848C18.6352 28.9455 18.816 28.9976 19.0007 28.9987C19.1711 28.9986 19.3387 28.9549 19.4876 28.8719C19.6364 28.7888 19.7615 28.6691 19.851 28.524C19.9406 28.379 19.9916 28.2135 19.9992 28.0432C20.0068 27.873 19.9707 27.7036 19.8945 27.5512L10.8957 9.55117ZM10.0007 12.2349L13.3832 18.9987H6.61821L10.0007 12.2349ZM4.62571 22.9987L5.62571 20.9987H14.3882L15.3882 22.9987H4.62571ZM13.9432 10.7162C14.0462 10.1404 14.0217 9.54901 13.8713 8.98373C13.721 8.41845 13.4485 7.89302 13.0731 7.44447C12.6976 6.99592 12.2284 6.63517 11.6984 6.38764C11.1685 6.14011 10.5906 6.01183 10.0057 6.01183C9.42078 6.01183 8.84297 6.14011 8.31299 6.38764C7.78302 6.63517 7.31378 6.99592 6.93835 7.44447C6.56292 7.89302 6.29043 8.41845 6.14009 8.98373C5.98975 9.54901 5.96521 10.1404 6.06821 10.7162C6.09489 10.8467 6.09522 10.9812 6.06919 11.1119C6.04316 11.2425 5.99129 11.3667 5.91662 11.477C5.84194 11.5873 5.74598 11.6816 5.63437 11.7543C5.52275 11.827 5.39773 11.8767 5.26664 11.9005C5.13555 11.9242 5.00105 11.9215 4.87102 11.8925C4.74099 11.8636 4.61806 11.8089 4.50944 11.7318C4.40083 11.6546 4.30872 11.5566 4.23853 11.4433C4.16834 11.3301 4.12148 11.204 4.10071 11.0724C3.94397 10.2079 3.979 9.31956 4.20332 8.4701C4.42764 7.62063 4.83578 6.8308 5.3989 6.1564C5.96202 5.48201 6.66637 4.93951 7.46219 4.56724C8.25801 4.19498 9.12587 4.00203 10.0045 4.00203C10.883 4.00203 11.7509 4.19498 12.5467 4.56724C13.3425 4.93951 14.0469 5.48201 14.61 6.1564C15.1731 6.8308 15.5813 7.62063 15.8056 8.4701C16.0299 9.31956 16.0649 10.2079 15.9082 11.0724C15.8666 11.3029 15.7455 11.5114 15.566 11.6617C15.3865 11.812 15.1599 11.8945 14.9257 11.8949C14.8658 11.8943 14.806 11.8888 14.747 11.8787C14.6173 11.8558 14.4935 11.8075 14.3826 11.7366C14.2717 11.6657 14.1758 11.5736 14.1006 11.4656C14.0253 11.3576 13.9721 11.2358 13.944 11.1072C13.916 10.9786 13.9136 10.8457 13.937 10.7162H13.9432ZM2.01946 16.0249C0.898962 14.5406 0.214591 12.7732 0.0432416 10.9213C-0.128108 9.06949 0.220354 7.20654 1.04947 5.54182C1.87859 3.87709 3.15551 2.47656 4.73677 1.49759C6.31802 0.518622 8.14094 0 10.0007 0C11.8605 0 13.6834 0.518622 15.2646 1.49759C16.8459 2.47656 18.1228 3.87709 18.9519 5.54182C19.7811 7.20654 20.1295 9.06949 19.9582 10.9213C19.7868 12.7732 19.1025 14.5406 17.982 16.0249C17.8204 16.2319 17.5839 16.367 17.3236 16.4011C17.0632 16.4352 16.7999 16.3656 16.5905 16.2072C16.3811 16.0488 16.2423 15.8144 16.2043 15.5546C16.1662 15.2948 16.2318 15.0305 16.387 14.8187C17.2829 13.6311 17.83 12.2173 17.9668 10.7359C18.1036 9.25458 17.8246 7.76445 17.1612 6.43291C16.4978 5.10138 15.4763 3.98119 14.2114 3.19819C12.9465 2.41519 11.4883 2.00039 10.0007 2.00039C8.51307 2.00039 7.0549 2.41519 5.78999 3.19819C4.52509 3.98119 3.50357 5.10138 2.84018 6.43291C2.17679 7.76445 1.89782 9.25458 2.03459 10.7359C2.17137 12.2173 2.71848 13.6311 3.61446 14.8187C3.76962 15.0305 3.83524 15.2948 3.79716 15.5546C3.75908 15.8144 3.62035 16.0488 3.41093 16.2072C3.2015 16.3656 2.93819 16.4352 2.67785 16.4011C2.41751 16.367 2.18102 16.2319 2.01946 16.0249Z" fill="#FEF9EF"/>
</svg>
